<svg width="6" height="14" viewBox="0 0 6 14" fill="none" xmlns="http://www.w3.org/2000/svg">
<g clip-path="url(#clip0)">
<path d="M4.94043 11.759C4.94043 12.8791 4.02921 13.7903 2.90918 13.7903C1.78915 13.7903 0.87793 12.8791 0.87793 11.759C0.87793 10.639 1.78915 9.72778 2.90918 9.72778C4.02921 9.72778 4.94043 10.639 4.94043 11.759ZM1.11305 1.4301L1.45836 8.33635C1.47458 8.66067 1.74225 8.91528 2.06697 8.91528H3.75139C4.07611 8.91528 4.34378 8.66067 4.36 8.33635L4.70531 1.4301C4.72271 1.08202 4.44521 0.790283 4.0967 0.790283H1.72166C1.37315 0.790283 1.09565 1.08202 1.11305 1.4301Z" fill="#151515"/>
</g>
<defs>
<clipPath id="clip0">
<rect width="4.875" height="13" fill="white" transform="translate(0.47168 0.790283)"/>
</clipPath>
</defs>
</svg>
