<svg width="36" height="36" viewBox="0 0 36 36" fill="none" xmlns="http://www.w3.org/2000/svg">
<path d="M21 4.5V10.5C21 10.8978 21.158 11.2794 21.4393 11.5607C21.7206 11.842 22.1022 12 22.5 12H28.5" stroke="black" stroke-width="2.5" stroke-linecap="round" stroke-linejoin="round"/>
<path d="M21 28.5H31.5M31.5 28.5L27 24M31.5 28.5L27 33M17.25 31.5H10.5C9.70435 31.5 8.94129 31.1839 8.37868 30.6213C7.81607 30.0587 7.5 29.2956 7.5 28.5V7.5C7.5 6.70435 7.81607 5.94129 8.37868 5.37868C8.94129 4.81607 9.70435 4.5 10.5 4.5H21L28.5 12V19.5L17.25 31.5Z" stroke="black" stroke-width="2.5" stroke-linecap="round" stroke-linejoin="round"/>
</svg>
