<svg width="24" height="24" viewBox="0 0 24 24" fill="none" xmlns="http://www.w3.org/2000/svg">
<path d="M14 1V5.88889C14 6.21304 14.1288 6.52392 14.358 6.75313C14.5872 6.98234 14.8981 7.11111 15.2222 7.11111H20.1111" stroke="white" stroke-width="1.5" stroke-linecap="round" stroke-linejoin="round"/>
<path d="M17.6667 23H5.44444C4.79614 23 4.17438 22.7425 3.71596 22.284C3.25754 21.8256 3 21.2039 3 20.5556V3.44444C3 2.79614 3.25754 2.17438 3.71596 1.71596C4.17438 1.25754 4.79614 1 5.44444 1H14L20.1111 7.11111V20.5556C20.1111 21.2039 19.8536 21.8256 19.3951 22.284C18.9367 22.7425 18.315 23 17.6667 23Z" stroke="white" stroke-width="1.5" stroke-linecap="round" stroke-linejoin="round"/>
<path d="M11.5557 10.7778V18.1111" stroke="white" stroke-width="1.5" stroke-linecap="round" stroke-linejoin="round"/>
<path d="M7.88916 14.4444L11.5558 18.1111L15.2225 14.4444" stroke="white" stroke-width="1.5" stroke-linecap="round" stroke-linejoin="round"/>
</svg>
