<svg width="24" height="24" viewBox="0 0 24 24" fill="none" xmlns="http://www.w3.org/2000/svg">
<path fill-rule="evenodd" clip-rule="evenodd" d="M10.8657 1.02409C10.3036 0.837672 9.69638 0.837672 9.1343 1.02409C8.84172 1.12113 8.59112 1.27504 8.34333 1.45922C8.10691 1.63494 7.83715 1.86617 7.51612 2.14135L7.5161 2.14137L7.49696 2.15778C6.9505 2.62617 6.79777 2.74591 6.64429 2.81077C6.44777 2.89381 6.23327 2.92518 6.0212 2.90188C5.85557 2.88368 5.67495 2.8127 5.01725 2.52038L2.3046 1.31476C2.07261 1.21165 1.80419 1.23291 1.59132 1.37125C1.37844 1.5096 1.25 1.74624 1.25 2.00012V15.6001V15.6331C1.24999 16.7253 1.24999 17.5908 1.30699 18.2884C1.36527 19.0018 1.48688 19.6054 1.76772 20.1566C2.22312 21.0503 2.94978 21.777 3.84355 22.2324C4.39472 22.5132 4.99835 22.6348 5.71173 22.6931C6.40935 22.7501 7.27485 22.7501 8.36698 22.7501H8.4H15C15.4142 22.7501 15.75 22.4143 15.75 22.0001C15.75 21.5859 15.4142 21.2501 15 21.2501H8.4C7.26752 21.2501 6.46327 21.2495 5.83388 21.1981C5.21325 21.1474 4.829 21.051 4.52453 20.8959C3.913 20.5843 3.41582 20.0871 3.10423 19.4756C2.94909 19.1711 2.85271 18.7869 2.80201 18.1662C2.75058 17.5369 2.75 16.7326 2.75 15.6001V3.15419L4.40804 3.8911L4.50051 3.93225C5.02099 4.16406 5.42922 4.34587 5.85739 4.39291C6.32394 4.44417 6.79584 4.37516 7.22818 4.19246C7.62494 4.02479 7.96403 3.73369 8.39634 3.36257L8.47315 3.29666C8.81834 3.00078 9.04856 2.804 9.23813 2.66311C9.421 2.52719 9.52574 2.47461 9.6065 2.44783C9.86199 2.36309 10.138 2.36309 10.3935 2.44783C10.4743 2.47461 10.579 2.52719 10.7619 2.66311C10.9514 2.804 11.1817 3.00078 11.5269 3.29666L11.6037 3.36257C12.036 3.73369 12.3751 4.02479 12.7718 4.19246C13.2042 4.37516 13.6761 4.44417 14.1426 4.39291C14.5708 4.34587 14.979 4.16406 15.4995 3.93226L15.592 3.8911L17.25 3.15419V12.0001V20.0001C17.25 21.5189 18.4812 22.7501 20 22.7501C21.5188 22.7501 22.75 21.5189 22.75 20.0001V15.2001V15.1697C22.75 14.6355 22.75 14.1897 22.7203 13.8255C22.6892 13.4456 22.6221 13.0889 22.4503 12.7516C22.1866 12.2342 21.7659 11.8135 21.2485 11.5499C20.9112 11.378 20.5546 11.3109 20.1747 11.2799C19.8104 11.2501 19.3646 11.2501 18.8304 11.2501H18.8H18.75V2.00012C18.75 1.74624 18.6216 1.5096 18.4087 1.37125C18.1958 1.23291 17.9274 1.21165 17.6954 1.31476L14.9828 2.52038C14.325 2.8127 14.1444 2.88368 13.9788 2.90188C13.7667 2.92518 13.5522 2.89381 13.3557 2.81077C13.2022 2.74591 13.0495 2.62617 12.503 2.15778L12.4839 2.14135L12.4839 2.14134C12.1628 1.86617 11.8931 1.63494 11.6567 1.45922C11.4089 1.27504 11.1583 1.12113 10.8657 1.02409ZM18.8 12.7501C19.3724 12.7501 19.7566 12.7507 20.0525 12.7749C20.3396 12.7983 20.4769 12.8402 20.5675 12.8864C20.8027 13.0062 20.9939 13.1974 21.1138 13.4326C21.1599 13.5232 21.2018 13.6605 21.2252 13.9476C21.2494 14.2435 21.25 14.6277 21.25 15.2001V20.0001C21.25 20.6905 20.6904 21.2501 20 21.2501C19.3096 21.2501 18.75 20.6905 18.75 20.0001V12.7501H18.8Z" fill="#22272F"/>
<path d="M5 14.3L7.30769 17L15 8" stroke="#22272F" stroke-width="1.5" stroke-linecap="round" stroke-linejoin="round"/>
</svg>
