<svg width="35" height="35" viewBox="0 0 35 35" fill="none" xmlns="http://www.w3.org/2000/svg">
<path d="M7.29167 10.2083H8.75C9.52355 10.2083 10.2654 9.90102 10.8124 9.35404C11.3594 8.80706 11.6667 8.06519 11.6667 7.29165C11.6667 6.90487 11.8203 6.53394 12.0938 6.26045C12.3673 5.98696 12.7382 5.83331 13.125 5.83331H21.875C22.2618 5.83331 22.6327 5.98696 22.9062 6.26045C23.1797 6.53394 23.3333 6.90487 23.3333 7.29165C23.3333 8.06519 23.6406 8.80706 24.1876 9.35404C24.7346 9.90102 25.4765 10.2083 26.25 10.2083H27.7083C28.4819 10.2083 29.2237 10.5156 29.7707 11.0626C30.3177 11.6096 30.625 12.3514 30.625 13.125V26.25C30.625 27.0235 30.3177 27.7654 29.7707 28.3124C29.2237 28.8594 28.4819 29.1666 27.7083 29.1666H7.29167C6.51812 29.1666 5.77625 28.8594 5.22927 28.3124C4.68229 27.7654 4.375 27.0235 4.375 26.25V13.125C4.375 12.3514 4.68229 11.6096 5.22927 11.0626C5.77625 10.5156 6.51812 10.2083 7.29167 10.2083" stroke="white" stroke-width="1.5" stroke-linecap="round" stroke-linejoin="round"/>
<path d="M17.5 23.3333C19.9162 23.3333 21.875 21.3746 21.875 18.9583C21.875 16.5421 19.9162 14.5833 17.5 14.5833C15.0838 14.5833 13.125 16.5421 13.125 18.9583C13.125 21.3746 15.0838 23.3333 17.5 23.3333Z" stroke="white" stroke-width="1.5" stroke-linecap="round" stroke-linejoin="round"/>
</svg>
