<svg width="500" height="500" viewBox="0 0 500 500" fill="none" xmlns="http://www.w3.org/2000/svg">
<path d="M408.615 277.592L400.648 277.812L400.323 273.504L401.612 274.049L404.736 273.724L404.411 269.751L395.815 269.856L393.446 266.742L393.571 265.106L382.48 255.105L379.786 257.265L395.595 276.628L397.849 277.383V278.452H394.84L395.595 280.832L415.063 281.691L408.615 277.592Z" fill="white"/>
<path d="M421.08 267.476L422.412 266.595V255.975L421.08 255.42L420.441 252.107H418.501L417.254 255.462L415.765 256.793L404.506 262.894V268.933L408.259 273.881H417.746L418.952 270.82L421.08 268.881V267.476Z" fill="white"/>
<path d="M429.436 266.596L423.743 268.808L423.827 270.087H422.412V277.939H425.316L424.886 272.928L427.15 273.746V277.289L429.519 277.079L429.436 266.596Z" fill="white"/>
<path d="M475.772 307.88L469.975 302.921L469.545 293.465L465.719 286.913L462.28 286.735L460.886 298.623L454.302 298.13L452.468 297.029L452.248 292.312L455.728 293.035L458.653 290.163L452.415 286.42H445.066L439.793 293.895H437.644V291.526L431.343 292.008L421.321 303.403L416.027 303.477L410.114 307.555L409.674 325.188L406.131 328.627V331.751L423.355 325.838L437.298 325.282L442.456 336.647L458.307 337.181L473.581 322.829L477.335 314.243L475.772 307.88Z" fill="white"/>
<path d="M444.532 345.39L450.141 345.987L454.659 343.492L454.743 340.085L449.805 339.55L444.532 345.39Z" fill="white"/>
<path d="M498.406 329.885L496.069 330.346L495.995 325.083L491.718 325.345L491.173 333.575L487.409 336.143L480.417 337.118L469.241 345.086L467.323 346.637V349.3L473.194 348.398L487.378 339.697L491.393 337.055L495.681 335.158L500 332.715L498.406 329.885Z" fill="white"/>
<path d="M454.439 271.146L450.822 271.251L451.095 267.487L447.656 265.453L442.76 270.349L446.042 274.375L453.128 275.391L457.123 277.488L457.227 279.438H454.638L454.743 283.411L463.35 282.866L466.474 279.543L469.808 279.207V285.34H475.616V282.866H472.722L472.166 275.391L458.307 269.101L454.439 271.146Z" fill="white"/>
<path d="M351.166 253.292L352.518 256.94L357.425 255.106L357.959 250.063L354.007 249.298L351.166 253.292Z" fill="white"/>
<path d="M293.748 295.886L287.07 295.016V300.184L289.439 302.983L287.604 305.772L284.921 308.896V314.589L288.579 318.143L291.924 312.786L298.476 303.193L301.589 288.139H297.616L293.748 295.886Z" fill="white"/>
<path d="M430.851 279.993H428.66V281.157L430.358 281.692L430.851 279.993Z" fill="white"/>
<path d="M421.091 281.692H418.501V283.128H421.091V281.692Z" fill="white"/>
<path d="M424.791 283.118H426.406V281.871L427.57 281.692V280.455H424.991L423.942 281.692L422.412 283.118V284.366L424.791 284.125V283.118Z" fill="white"/>
<path d="M431.406 284.25H433.975V282.919L435.799 283.118L435.558 280.833L432.612 281.284L432.36 282.762L429.069 283.118H428.901V285.383H431.406V284.25Z" fill="white"/>
<path d="M33.8827 172.034L34.4174 168.648L30.9264 168.113C30.9264 168.323 31.1885 172.045 31.461 172.045C31.7336 172.034 33.8827 172.034 33.8827 172.034Z" fill="white"/>
<path d="M209.523 168.805L209.796 170.902L206.672 171.552L206.242 176.008H210.006L215.006 175.525L217.585 172.464L214.838 171.384L213.339 169.665L211.085 166.006L210.006 160.849L205.76 161.708L204.575 163.522V165.577L206.609 166.981L209.523 168.805Z" fill="white"/>
<path d="M205.917 170.524L206.137 167.725L203.652 166.656L200.172 167.453L197.582 171.594V174.288H200.591L205.917 170.524Z" fill="white"/>
<path d="M384.472 252.265L399.788 266.942L400.606 264.363L388.172 246.614L389.462 241.446L396.025 248.878L399.683 249.266L404.495 246.058L403.698 241.226L395.742 234.831L395.427 229.023L397.702 225.962L401.728 227.251L401.403 229.998L403.709 233.541L405.753 232.084L404.632 227.891L415.933 223.854L420.87 219.713L420.126 212.239L410.293 201.923L410.125 193.536H414.486L428.031 203.862L431.847 202.835L429.32 199.501L422.066 195.098L422.495 188.546L431.092 188.556L431.784 180.432L428.492 176.123L430.442 174.026L434.625 178.22L435.967 176.448L430.589 170.315L417.212 168.701L415.43 165.157L419.298 159.674L422.359 161.928L431.553 162.736L443.169 154.988L445.108 157.41L442.519 161.446V165.482L453.17 174.194L456.567 172.422L455.277 166.614L447.687 159.517L457.689 158.867V155.963L462.532 154.999L458.821 152.441L458.988 150.47L469.157 152.116L471.097 150.47L457.395 144.662L407.378 142.083L402.703 139.714L395.28 138.613L389.693 138.424L384.639 143.54L382.511 143.373L375.77 138.372H355.925L346.721 132.889L328.28 134.053L314.295 140.311L314.411 147.576L310.081 148.866L309.116 141.601L307.512 139.074L302.669 137.89L301.547 142.251L303.004 145.794L285.78 144.672L277.572 148.488L276.324 144.893L274.28 145.427L272.781 149.401L268.472 152.766L257.978 152.472L257.506 150.155L268.472 149.673L270.726 147.734L257.485 141.601L241.341 142.083L232.314 146.706L228.928 152.755L222.963 155.093L220.447 157.829L221.024 161.016L224.095 161.446L225.961 166.08L231.266 163.941L232.147 170.147H230.543L226.171 169.497L221.338 170.305L216.662 176.92L209.963 177.968L208.999 183.692L211.83 184.363L211.022 188.043L204.365 186.711L198.264 188.043L196.974 191.439L198.033 198.558L201.619 200.235L207.615 200.204L211.672 199.837L212.92 196.608L219.252 188.368L223.414 189.227L227.523 185.516L228.289 188.42L238.395 195.234L237.158 196.891L232.597 196.65L234.348 199.134L237.147 199.753L240.428 198.379L240.366 194.427L241.823 193.693L240.649 192.446L233.908 188.693L232.136 183.692H237.745L239.527 185.464L244.36 189.615L244.569 194.637L249.57 199.962L251.426 192.666L254.896 190.779L255.546 196.744L258.932 200.455L269.153 200.287L272.162 202.552V207.878L268.451 211.264H258.125L251.824 206.578L245.219 207.228V211.264H243.112L240.858 209.649L229.4 206.745V199.323L214.88 200.455L210.372 202.877H204.606L201.776 202.594L194.773 206.483V213.801L180.463 224.127L181.648 228.53H184.551L183.797 232.723L181.752 233.468L181.648 244.444L194.008 258.534H199.396L199.721 257.674H209.397L212.186 255.095H217.679L220.688 258.104L228.855 258.964L227.775 269.835L236.864 285.854L232.073 294.995L232.398 299.304L236.172 303.057V313.394L241.11 320.051V328.647H255.745L266.721 317.357L270.16 311.224L274.563 310.249V305.091L277.467 301.642L283.589 293.255L282.3 280.465L279.616 275.716L291.682 264.184L304.986 245.167L302.407 243.983L288.6 246.887L285.046 245.115L270.527 217.763L271.544 216.579L285.937 234.055L286.315 239.485L289.649 242.819L296.421 242.379L310.574 232.136L315.019 229.232L314.924 225.689L310.207 225.07C310.207 225.07 293.643 217.26 293.643 216.925C293.643 216.579 293.748 210.226 293.748 210.226H297.406L297.951 214.849L305.625 219.263L314.4 219.692L333.428 222.806L337.894 225.616V229.977L337.317 235.9L347.088 251.94L350.233 252.663L353.378 248.103L355.118 235.114L358.378 228.121L363.62 226.161L372.877 227.041L384.482 237.357V252.265H384.472ZM250.629 150.145L244.224 154.066V156.645L247.861 158.343L248.092 161.813L242.976 169.435L234.096 169.351L233.541 167.495L239.097 164.675L239.139 154.15L248.574 147.576H250.629V150.145ZM270.359 194.993L261.993 194.647L259.488 194.993V189.28L261.375 187.173L263.387 186.544L267.843 186.03L268.807 184.51L270.631 185.411L270.873 190.622L275.747 192.614L276.177 194.993H270.359ZM302.501 199.082L301.044 200.476L297.668 200.204L297.018 199.187L291.693 198.809L292.07 197.09L294.88 194.668V192.634L289.491 188.703L289.271 183.703L290.361 181.228L294.712 180.851L298.423 182.403L298.591 184.992L293.328 184.698L293.056 187.099L299.671 191.513V194.742L302.522 196.838V199.082H302.501V199.082Z" fill="white"/>
<path d="M133.507 184.373H129.796V186.281H130.677C130.677 186.281 130.729 186.69 130.803 187.225L133.078 187.036L134.493 186.155L134.87 184.373L136.705 184.216L137.428 182.717L135.74 182.371L134.262 182.402L133.507 184.373Z" fill="white"/>
<path d="M124.565 187.749L127.259 187.519L127.542 185.642L125.928 184.374L124.712 185.873L124.565 187.749Z" fill="white"/>
<path d="M159.936 270.715L148.541 270.6L139.504 267.172L139.074 260.725L136.055 255.441L127.888 255.326L123.15 247.914L118.956 245.87L118.736 248.124L111.094 248.574L108.295 244.685L100.338 243.071L93.7959 250.65L83.4696 248.91L82.7148 237.273L75.1877 235.984L78.2069 230.281L77.3368 226.999L67.4403 233.614L61.2132 232.86L58.9802 227.995L60.343 222.974L63.7816 216.642L71.6862 212.637H86.9606L86.9187 217.292L92.4016 219.85L91.9613 211.893L95.9135 207.919L103.902 202.678L104.447 198.987L112.404 190.705L120.864 186.019L120.12 185.401L125.854 180.002L127.951 180.557L128.916 181.763L131.096 179.352L131.631 179.121L129.241 178.786L126.829 177.978V175.641L128.119 174.592H130.949L132.249 175.158L133.371 177.412L134.744 177.203V177.003L135.143 177.14L139.106 176.521L139.672 174.582L141.926 175.148V177.245L139.829 178.691L140.133 180.998L147.325 183.21C147.325 183.21 147.335 183.241 147.346 183.294L148.991 183.147L149.107 180.033L143.383 177.465L143.058 175.966L147.786 174.351L147.996 169.833L143.058 166.824L142.733 159.192L135.96 162.526H133.486L134.136 156.718L124.911 154.537L121.095 157.42V166.216L114.239 168.397L111.492 174.121L108.515 174.603V167.264L102.067 166.373L98.8384 164.277L97.5385 159.517L109.081 152.766L114.731 151.046L115.298 154.841L118.443 154.674L118.684 152.766L121.976 152.294L122.028 151.633L120.613 151.046L120.288 149.034L124.334 148.698L126.777 146.151L126.913 145.962L126.945 145.972L127.689 145.207L136.191 144.127L139.944 147.325L130.09 152.566L142.628 155.523L144.253 151.329H149.736L151.675 147.671L147.796 146.706V142.083L135.646 136.705L127.259 137.669L122.521 140.144L122.846 146.172L117.897 145.417L117.132 142.083L121.871 137.774L113.264 137.334L110.79 138.089L109.71 140.993L112.939 141.538L112.289 144.767L106.806 145.092L105.946 147.241L97.9893 147.45C97.9893 147.45 97.7691 142.932 97.4546 142.932C97.1401 142.932 103.692 142.827 103.692 142.827L108.431 138.204L105.841 136.915L102.403 140.248L96.6893 139.923L93.2507 135.185H85.9332L78.2908 140.888H85.2833L85.9228 142.932L84.0986 144.651L91.8459 144.872L93.0306 147.671L84.3083 147.346L83.8785 145.197L78.3956 144.012L75.4917 142.397L62.5865 142.502L58.6028 146.371L55.919 146.151L52.9102 144.431L43.9783 141.747H27.624L18.1784 148.205L11.8359 149.18L8.93194 151.434L13.4503 152.105V153.908H3.77406L0 156.592L4.83289 160.681L18.0631 160.786L19.8872 158.846H30.9683L34.9415 162.4L34.7318 167.883L38.0656 170.996L35.2665 172.978L35.9165 180.243L25.9152 192.393V203.789L31.2932 206.378V216.621L36.4511 225.416L40.6445 226.066L41.1792 223.047L36.231 215.405L35.2665 207.982H38.1704L39.397 215.625L46.5572 226.056L44.7016 229.431L49.2515 236.382L60.5422 239.181V237.357L65.0606 238.007L64.6308 241.236L68.1742 241.886L73.6571 243.385L81.4044 252.212L91.2903 252.956L92.2548 261.029L85.4825 265.767L85.1575 272.99L84.193 277.393L93.9846 289.659L94.7394 293.853C94.7394 293.853 98.2933 294.817 98.7231 294.817C99.1529 294.817 106.68 300.51 106.68 300.51V322.661L109.364 323.416L107.529 333.637L112.048 339.655L111.209 349.793L117.174 360.276L124.838 366.975L132.543 367.122L133.298 364.648L127.637 359.878L127.962 357.508L128.978 354.615L129.199 351.648L125.372 351.543L123.443 349.132L126.62 346.071L127.05 343.744L123.506 342.727L123.716 340.588L128.769 339.812L136.464 336.112L139.043 331.373L147.115 321.057L145.28 312.974L147.754 308.687L155.177 308.907L160.177 304.955L161.792 289.387L167.327 282.342L168.292 277.813L163.239 276.209L159.936 270.715ZM101.48 191.209L99.6247 193.064H95.5047L96.1546 190.244L98.0941 190.076L98.503 189.112L101.48 188.703V191.209ZM102.455 186.124L100.516 187.372L98.1046 187.812C98.1046 187.812 98.1046 183.944 98.1046 183.535H102.466L102.455 186.124ZM106.114 183.136L108.095 184.373L106.512 185.684L104.95 184.373L106.114 183.136ZM103.504 186.365H103.829L108.745 187.822V190.328H104.625L103.504 188.703V186.365ZM100.264 179.425L102.927 181.847L100.264 182.497V179.425ZM88.9735 179.834L92.6846 178.303H97.7691V179.834H98.8908V182.497H91.154L88.2501 181.69L88.9735 179.834ZM88.2501 186.764L91.2379 183.535H95.5152L90.0323 191.198L87.7678 189.982L88.2501 186.764ZM84.2978 168.533L87.359 169.256L86.3002 173.376L82.9979 174.425L80.9012 170.147L84.2978 168.533ZM68.9709 149.013V148.771H71.8015L72.0426 147.807H76.6658V149.82L75.3449 151.591H68.9709V149.013ZM73.4893 155.303C73.4893 155.303 76.3199 154.82 76.5505 154.82C76.7811 154.82 76.5505 157.64 76.5505 157.64L70.1765 158.049L68.9605 156.592L73.4893 155.303Z" fill="white"/>
</svg>
