<svg width="42" height="42" viewBox="0 0 42 42" fill="none" xmlns="http://www.w3.org/2000/svg">
<path d="M28 7H14C10.134 7 7 10.134 7 14V28C7 31.866 10.134 35 14 35H28C31.866 35 35 31.866 35 28V14C35 10.134 31.866 7 28 7Z" stroke="#097482" stroke-width="2.4" stroke-linecap="round" stroke-linejoin="round"/>
<path d="M21 26.25C23.8995 26.25 26.25 23.8995 26.25 21C26.25 18.1005 23.8995 15.75 21 15.75C18.1005 15.75 15.75 18.1005 15.75 21C15.75 23.8995 18.1005 26.25 21 26.25Z" stroke="#097482" stroke-width="2.4" stroke-linecap="round" stroke-linejoin="round"/>
<path d="M28.875 13.125V13.1275" stroke="#097482" stroke-width="2.4" stroke-linecap="round" stroke-linejoin="round"/>
</svg>
