<svg width="14" height="14" viewBox="0 0 14 14" fill="none" xmlns="http://www.w3.org/2000/svg">
<g clip-path="url(#clip0)">
<path opacity="0.4" d="M12.0898 10.2023L11.3832 9.79862C11.3013 9.7509 11.2389 9.67594 11.2066 9.58684C11.1744 9.49773 11.1746 9.40015 11.207 9.31112C10.8457 10.0641 10.2892 10.7065 9.59546 11.1714C8.90167 11.6363 8.09595 11.9067 7.26217 11.9545C6.42839 12.0023 5.59704 11.8257 4.85467 11.4432C4.1123 11.0606 3.48605 10.486 3.04112 9.77926C2.59619 9.0725 2.34884 8.2594 2.32483 7.4246C2.30082 6.58979 2.50102 5.76382 2.9046 5.03265C3.30818 4.30149 3.90037 3.69188 4.61952 3.26727C5.33868 2.84267 6.1585 2.61861 6.99365 2.61841C7.1432 2.61841 7.29098 2.62577 7.43697 2.63948C7.41818 2.63771 7.39939 2.63567 7.38035 2.63415C7.16479 2.61663 6.99365 2.44854 6.99365 2.23222V1.41972C6.99356 1.31481 7.03406 1.21394 7.10666 1.13822C7.17925 1.0625 7.27833 1.01779 7.38314 1.01347C7.25365 1.00509 7.12518 0.993408 6.99365 0.993408C3.51514 0.993408 0.696777 3.81177 0.696777 7.29028C0.696777 10.7688 3.51514 13.5872 6.99365 13.5872C9.48193 13.5872 11.6254 12.1412 12.6484 10.0472C12.5435 10.2468 12.2871 10.3151 12.0898 10.2023V10.2023Z" fill="#FFCEC1"/>
<path d="M7.38035 2.63422C7.16479 2.6167 6.99365 2.44862 6.99365 2.23229V1.41827C6.99365 1.18696 7.1884 0.992212 7.41945 1.0077C10.6987 1.22657 13.2905 3.95581 13.2905 7.29036C13.2913 8.24287 13.0741 9.18293 12.6558 10.0386C12.5542 10.2461 12.2909 10.3179 12.0906 10.2024L11.3837 9.7987C11.1955 9.69129 11.1341 9.45973 11.2263 9.26372C11.5161 8.64627 11.6661 7.97245 11.6655 7.29036C11.6655 4.84042 9.77977 2.831 7.38035 2.63422Z" fill="#FFCEC1"/>
</g>
<defs>
<clipPath id="clip0">
<rect width="13" height="13" fill="white" transform="translate(0.493652 0.790283)"/>
</clipPath>
</defs>
</svg>
