<svg width="32" height="32" viewBox="0 0 32 32" fill="none" xmlns="http://www.w3.org/2000/svg">
<path d="M16 18.6667C18.2091 18.6667 20 16.8758 20 14.6667C20 12.4575 18.2091 10.6667 16 10.6667C13.7909 10.6667 12 12.4575 12 14.6667C12 16.8758 13.7909 18.6667 16 18.6667Z" stroke="black" stroke-width="2" stroke-linecap="round" stroke-linejoin="round"/>
<path d="M23.5428 22.2093L17.8855 27.8667C17.3855 28.3662 16.7076 28.6468 16.0008 28.6468C15.2941 28.6468 14.6162 28.3662 14.1162 27.8667L8.4575 22.2093C6.9658 20.7175 5.94995 18.8169 5.53842 16.7478C5.12689 14.6787 5.33815 12.534 6.14551 10.585C6.95286 8.63592 8.32003 6.97004 10.0741 5.798C11.8283 4.62596 13.8905 4.00038 16.0002 4.00038C18.1098 4.00038 20.1721 4.62596 21.9262 5.798C23.6803 6.97004 25.0475 8.63592 25.8548 10.585C26.6622 12.534 26.8734 14.6787 26.4619 16.7478C26.0504 18.8169 25.0345 20.7175 23.5428 22.2093V22.2093Z" stroke="black" stroke-width="2" stroke-linecap="round" stroke-linejoin="round"/>
</svg>
