<svg width="40" height="40" viewBox="0 0 40 40" fill="none" xmlns="http://www.w3.org/2000/svg">
<path d="M5 5L35 35" stroke="black" stroke-width="1.66667" stroke-linecap="round" stroke-linejoin="round"/>
<path d="M16.1035 9.40666C16.6519 9.11666 17.2369 8.875 17.8535 8.69C21.0202 7.73 24.5152 8.36666 27.0202 10.3567C29.5252 12.3433 30.6619 15.385 30.0002 18.3333H31.6669C32.8708 18.3335 34.0452 18.7062 35.0289 19.4002C36.0126 20.0943 36.7575 21.0757 37.1614 22.2099C37.5653 23.344 37.6083 24.5754 37.2846 25.735C36.9609 26.8946 36.2864 27.9256 35.3535 28.6867M30.0002 30H11.6669C7.33686 30 3.8252 26.6417 3.8252 22.5C3.8252 18.3583 7.33686 15 11.6669 15C11.8535 14.1667 12.1752 13.3783 12.6135 12.6533L30.0002 30Z" stroke="black" stroke-width="1.66667" stroke-linecap="round" stroke-linejoin="round"/>
</svg>
