<svg width="17" height="17" viewBox="0 0 17 17" fill="none" xmlns="http://www.w3.org/2000/svg">
<path d="M6.06333 2.61377C5.28989 2.93393 4.58707 3.40327 3.995 3.99502" stroke="white" stroke-width="1.5" stroke-linecap="round" stroke-linejoin="round"/>
<path d="M2.61375 6.06335C2.29256 6.83565 2.12649 7.6636 2.125 8.50002" stroke="white" stroke-width="1.5" stroke-linecap="round" stroke-linejoin="round"/>
<path d="M2.61377 10.9366C2.93393 11.7101 3.40327 12.4129 3.99502 13.005" stroke="white" stroke-width="1.5" stroke-linecap="round" stroke-linejoin="round"/>
<path d="M6.06335 14.3862C6.83565 14.7074 7.6636 14.8735 8.50002 14.875" stroke="white" stroke-width="1.5" stroke-linecap="round" stroke-linejoin="round"/>
<path d="M10.9366 14.3863C11.7101 14.0661 12.4129 13.5968 13.005 13.005" stroke="white" stroke-width="1.5" stroke-linecap="round" stroke-linejoin="round"/>
<path d="M14.3862 10.9367C14.7074 10.1644 14.8735 9.33642 14.875 8.5" stroke="white" stroke-width="1.5" stroke-linecap="round" stroke-linejoin="round"/>
<path d="M14.3863 6.06333C14.0661 5.28989 13.5968 4.58707 13.005 3.995" stroke="white" stroke-width="1.5" stroke-linecap="round" stroke-linejoin="round"/>
<path d="M10.9367 2.61375C10.1644 2.29256 9.33642 2.12649 8.5 2.125" stroke="white" stroke-width="1.5" stroke-linecap="round" stroke-linejoin="round"/>
</svg>
