<svg width="24" height="24" viewBox="0 0 24 24" fill="none" xmlns="http://www.w3.org/2000/svg">
<path fill-rule="evenodd" clip-rule="evenodd" d="M9.1343 1.02409C9.69638 0.837672 10.3036 0.837672 10.8657 1.02409C11.1583 1.12113 11.4089 1.27504 11.6567 1.45922C11.8931 1.63494 12.1628 1.86617 12.4839 2.14134L12.4839 2.14135L12.503 2.15778C13.0495 2.62617 13.2022 2.74591 13.3557 2.81077C13.5522 2.89381 13.7667 2.92518 13.9788 2.90188C14.1444 2.88368 14.325 2.8127 14.9828 2.52038L17.6954 1.31476C17.9274 1.21165 18.1958 1.23291 18.4087 1.37125C18.6216 1.5096 18.75 1.74624 18.75 2.00012V11.2501H18.8H18.8304C19.3646 11.2501 19.8104 11.2501 20.1747 11.2799C20.5546 11.3109 20.9112 11.378 21.2485 11.5499C21.7659 11.8135 22.1866 12.2342 22.4503 12.7516C22.6221 13.0889 22.6892 13.4456 22.7203 13.8255C22.75 14.1897 22.75 14.6355 22.75 15.1697V15.2001V20.0001C22.75 21.5189 21.5188 22.7501 20 22.7501C18.4812 22.7501 17.25 21.5189 17.25 20.0001V12.0001V3.15419L15.592 3.8911L15.4995 3.93226C14.979 4.16406 14.5708 4.34587 14.1426 4.39291C13.6761 4.44417 13.2042 4.37516 12.7718 4.19246C12.3751 4.02479 12.036 3.73369 11.6037 3.36257L11.5269 3.29666C11.1817 3.00078 10.9514 2.804 10.7619 2.66311C10.579 2.52719 10.4743 2.47461 10.3935 2.44783C10.138 2.36309 9.86199 2.36309 9.6065 2.44783C9.52574 2.47461 9.421 2.52719 9.23813 2.66311C9.04856 2.804 8.81834 3.00078 8.47315 3.29666L8.39634 3.36257C7.96403 3.73369 7.62494 4.02479 7.22818 4.19246C6.79584 4.37516 6.32394 4.44417 5.85739 4.39291C5.42922 4.34587 5.02099 4.16406 4.50051 3.93225L4.40804 3.8911L2.75 3.15419V15.6001C2.75 16.7326 2.75058 17.5369 2.80201 18.1662C2.85271 18.7869 2.94909 19.1711 3.10423 19.4756C3.41582 20.0871 3.913 20.5843 4.52453 20.8959C4.829 21.051 5.21325 21.1474 5.83388 21.1981C6.46327 21.2495 7.26752 21.2501 8.4 21.2501H15C15.4142 21.2501 15.75 21.5859 15.75 22.0001C15.75 22.4143 15.4142 22.7501 15 22.7501H8.4H8.36698C7.27485 22.7501 6.40935 22.7501 5.71173 22.6931C4.99835 22.6348 4.39472 22.5132 3.84355 22.2324C2.94978 21.777 2.22312 21.0503 1.76772 20.1566C1.48688 19.6054 1.36527 19.0018 1.30699 18.2884C1.24999 17.5908 1.24999 16.7253 1.25 15.6331V15.6001V2.00012C1.25 1.74624 1.37844 1.5096 1.59132 1.37125C1.80419 1.23291 2.07261 1.21165 2.3046 1.31476L5.01725 2.52038C5.67495 2.8127 5.85557 2.88368 6.0212 2.90188C6.23327 2.92518 6.44777 2.89381 6.64429 2.81077C6.79777 2.74591 6.9505 2.62617 7.49696 2.15778L7.5161 2.14137L7.51612 2.14135C7.83715 1.86617 8.10691 1.63494 8.34333 1.45922C8.59112 1.27504 8.84172 1.12113 9.1343 1.02409ZM6.25 9.00012C6.25 8.58591 6.58579 8.25012 7 8.25012H11C11.4142 8.25012 11.75 8.58591 11.75 9.00012C11.75 9.41434 11.4142 9.75012 11 9.75012H7C6.58579 9.75012 6.25 9.41434 6.25 9.00012ZM9.25 13.0001C9.25 12.5859 9.58579 12.2501 10 12.2501H13C13.4142 12.2501 13.75 12.5859 13.75 13.0001C13.75 13.4143 13.4142 13.7501 13 13.7501H10C9.58579 13.7501 9.25 13.4143 9.25 13.0001ZM10 16.2501C9.58579 16.2501 9.25 16.5859 9.25 17.0001C9.25 17.4143 9.58579 17.7501 10 17.7501H13C13.4142 17.7501 13.75 17.4143 13.75 17.0001C13.75 16.5859 13.4142 16.2501 13 16.2501H10ZM8 13.0001C8 13.5524 7.55228 14.0001 7 14.0001C6.44772 14.0001 6 13.5524 6 13.0001C6 12.4478 6.44772 12.0001 7 12.0001C7.55228 12.0001 8 12.4478 8 13.0001ZM7 18.0001C7.55228 18.0001 8 17.5524 8 17.0001C8 16.4478 7.55228 16.0001 7 16.0001C6.44772 16.0001 6 16.4478 6 17.0001C6 17.5524 6.44772 18.0001 7 18.0001ZM18.8 12.7501C19.3724 12.7501 19.7566 12.7507 20.0525 12.7749C20.3396 12.7983 20.4769 12.8402 20.5675 12.8864C20.8027 13.0062 20.9939 13.1974 21.1138 13.4326C21.1599 13.5232 21.2018 13.6605 21.2252 13.9476C21.2494 14.2435 21.25 14.6277 21.25 15.2001V20.0001C21.25 20.6905 20.6904 21.2501 20 21.2501C19.3096 21.2501 18.75 20.6905 18.75 20.0001V12.7501H18.8Z" fill="#22272F"/>
</svg>
