<svg width="42" height="42" viewBox="0 0 42 42" fill="none" xmlns="http://www.w3.org/2000/svg">
<path d="M9.68045 9.1126C14.5307 8.87084 18.3033 8.75 20.998 8.75C23.693 8.75 27.4669 8.87093 32.3197 9.11269C34.9465 9.24359 37.0711 11.2979 37.2902 13.9188C37.5121 16.5735 37.623 18.9117 37.623 20.9333C37.623 22.9798 37.5094 25.3505 37.282 28.0457C37.0636 30.634 34.9852 32.6736 32.3931 32.843C28.2444 33.1144 24.446 33.25 20.998 33.25C17.5505 33.25 13.7536 33.1144 9.60712 32.8432C7.01597 32.6737 4.938 30.6354 4.71853 28.0481C4.48821 25.3328 4.37305 22.9612 4.37305 20.9333C4.37305 18.9298 4.48546 16.5909 4.71027 13.9163H4.71028C4.93051 11.2965 7.05465 9.2435 9.68045 9.1126Z" stroke="#097482" stroke-width="2.4" stroke-linejoin="round"/>
<path d="M18.375 17.1581V24.8554C18.375 25.2695 18.7108 25.6053 19.125 25.6053C19.272 25.6053 19.4159 25.5621 19.5386 25.481L25.3115 21.6655C25.657 21.4372 25.7519 20.9718 25.5236 20.6263C25.469 20.5437 25.3985 20.4727 25.3164 20.4174L19.5435 16.5357C19.1998 16.3046 18.7337 16.3959 18.5026 16.7396C18.4194 16.8634 18.375 17.0091 18.375 17.1581Z" stroke="#097482" stroke-width="2.4" stroke-linejoin="round"/>
</svg>
